Coordinates
version=1
nRows=19
nColumns=36
inDegrees=yes

Units are S.I. units (second, meters, Newtons, ...)
If the header above contains a line with 'inDegrees', this indicates whether rotational values are in degrees (yes) or radians (no).

endheader
time	pelvis_tilt	pelvis_list	pelvis_rotation	pelvis_tx	pelvis_ty	pelvis_tz	hip_flexion_r	hip_adduction_r	hip_rotation_r	knee_angle_r	knee_angle_r_beta	ankle_angle_r	subtalar_angle_r	mtp_angle_r	hip_flexion_l	hip_adduction_l	hip_rotation_l	knee_angle_l	knee_angle_l_beta	ankle_angle_l	subtalar_angle_l	mtp_angle_l	lumbar_extension	lumbar_bending	lumbar_rotation	arm_flex_r	arm_add_r	arm_rot_r	elbow_flex_r	pro_sup_r	arm_flex_l	arm_add_l	arm_rot_l	elbow_flex_l	pro_sup_l
      5.96666670	     -7.81883774	     -2.18672710	      1.74232999	      0.65455489	      0.94709023	     -0.02328496	      2.15772606	     -0.09612238	      2.32834923	      0.39562974	      0.00690504	      5.06863407	     -3.53921312	     -7.49999987	     -3.03651412	     -3.10154906	     -4.17741145	      0.24695698	      0.00431021	     11.95851887	     -6.39471509	     -7.49999987	     -5.86251691	      0.99070007	     -1.53740286	      4.04548891	    -12.31379930	     23.10827999	     31.37225730	     67.30658763	     -2.87205818	    -16.23499205	      9.66498916	     40.44001966	     72.16858796
      5.98333330	     -8.18247345	     -1.87961577	      1.63923121	      0.65670744	      0.94795171	     -0.02151999	      2.37659074	     -0.21678542	      2.34200456	      0.34891329	      0.00608969	      5.33813437	     -3.39493723	     -7.49999987	     -2.77160019	     -2.99247465	     -4.33917955	      0.25750567	      0.00449432	     11.54998230	     -6.32864982	     -7.49999987	     -5.35878483	      0.69873534	     -1.29849167	      4.14404642	    -12.16151172	     23.25279802	     31.34735747	     66.93738411	     -2.95592203	    -15.75066813	     10.31005753	     40.03249368	     71.84442718
      6.00000000	     -8.48700982	     -1.57937054	      1.53465780	      0.65700860	      0.94941589	     -0.01793727	      2.63635907	     -0.34969275	      2.40112699	      0.31100276	      0.00542802	      5.65980357	     -2.93340040	     -7.49999987	     -2.49818505	     -2.90898154	     -4.63344992	      0.26058724	      0.00454811	     11.07036244	     -5.94000883	     -7.49999987	     -5.09099152	      0.39812074	     -1.07646751	      4.14993297	    -12.11046663	     23.13646631	     31.87772988	     66.64903440	     -3.15865239	    -15.28855477	     10.42488626	     40.25768217	     71.47328146
      6.01666670	     -8.82020151	     -1.27074809	      1.41555246	      0.65934201	      0.94784782	     -0.01544540	      2.89148273	     -0.52187171	      2.80851754	      0.28809514	      0.00502821	      5.64437261	     -3.18775944	     -7.49999987	     -2.21384630	     -2.80058027	     -4.76953770	      0.27835335	      0.00485818	     10.57102849	     -5.97001752	     -7.49999987	     -4.60399678	      0.15659755	     -0.75291145	      4.24015537	    -12.16416481	     23.60085959	     31.84375713	     67.32709811	     -3.10157947	    -14.92451725	     11.64716491	     39.52148589	     72.97006969
      6.03333330	     -8.91201344	     -1.01616566	      1.35695427	      0.66047199	      0.94871561	     -0.01242300	      2.94529064	     -0.60713234	      2.92562082	      0.27137319	      0.00473636	      5.54767496	     -3.36007253	     -7.49999987	     -2.17583092	     -2.74772053	     -4.89379217	      0.29608616	      0.00516768	     10.10753077	     -5.91501981	     -7.49999987	     -4.57177064	     -0.03758571	     -0.52229133	      4.22133171	    -12.20186507	     23.40402749	     32.20868714	     67.59655939	     -3.17652565	    -14.51532539	     12.16619509	     39.33394865	     73.80494462
      6.05000000	     -8.96916139	     -0.86464603	      1.29412921	      0.66191952	      0.94954464	     -0.00849928	      2.98368938	     -0.56103103	      3.10262454	      0.26311641	      0.00459225	      5.70424691	     -3.36625668	     -7.49999987	     -2.19462257	     -2.83327196	     -4.87468126	      0.32236609	      0.00562635	      9.81598424	     -5.91922354	     -7.49999987	     -4.47761913	     -0.10032174	     -0.30296973	      4.18445034	    -12.28710989	     23.40555418	     32.52296254	     67.52380736	     -3.32193691	    -14.16435402	     12.98030758	     39.25006038	     73.95871305
      6.06666670	     -9.04521533	     -0.74024687	      1.31898991	      0.66186897	      0.94895234	     -0.00592752	      3.03484476	     -0.51879889	      3.16213178	      0.26407025	      0.00460890	      5.83083879	     -3.06347726	     -7.49999987	     -2.15267576	     -2.94844175	     -4.78032261	      0.35605295	      0.00621430	      9.48843238	     -5.91738957	     -7.49999987	     -4.39916779	     -0.11521977	     -0.27624254	      4.21777525	    -12.39810989	     23.26969620	     32.92666875	     67.44526816	     -3.64481022	    -13.81989205	     13.15939739	     39.47625691	     73.91394152
      6.08333330	     -8.91521571	     -0.61405262	      1.35190298	      0.66250616	      0.94738779	     -0.00410612	      2.86319265	     -0.49302346	      3.67656761	      0.27320924	      0.00476840	      5.58902809	     -3.95825918	     -7.49999987	     -2.28322651	     -3.02473942	     -4.84649732	      0.40058930	      0.00699160	      9.47969226	     -5.53528561	     -7.49999987	     -4.57874176	     -0.08076933	      0.02585625	      4.14592078	    -12.76531487	     23.47577534	     33.70335829	     67.56821461	     -3.73860374	    -13.65071195	     14.31813412	     39.87023879	     74.51556949
      6.10000000	     -8.72603377	     -0.51350523	      1.42787065	      0.66269053	      0.95092285	     -0.00144657	      2.67695465	     -0.45369545	      3.47738260	      0.28792269	      0.00502520	      5.50304416	     -3.94572012	     -7.49999987	     -2.47063104	     -3.14021399	     -4.80638708	      0.46123708	      0.00805011	      9.20735234	     -5.38498413	     -7.49999987	     -4.85952301	     -0.00516206	      0.14893956	      4.16914836	    -12.95964118	     23.13302528	     34.22325053	     67.13357043	     -3.99009565	    -13.32817661	     14.52986045	     40.32085737	     73.92219382
      6.11666670	     -8.60685994	     -0.42324782	      1.50357054	      0.66166997	      0.94966493	      0.00148058	      2.63045059	     -0.39729874	      3.72576422	      0.30292248	      0.00528699	      5.24374633	     -4.69914065	     -7.49999987	     -2.54294553	     -3.26624315	     -4.37368961	      0.57316439	      0.01000361	      8.68408683	     -6.10893836	     -7.49999987	     -5.11638860	      0.07056210	      0.35459516	      4.20063895	    -13.19612231	     22.95849007	     34.79990922	     66.56741041	     -4.17629612	    -13.19146474	     14.99406066	     41.03569001	     73.09840868
      6.13333330	     -8.30649328	     -0.30091834	      1.61247613	      0.66349471	      0.94633303	      0.00318024	      2.33713447	     -0.36935097	      3.85833211	      0.32537405	      0.00567885	      4.70233400	     -5.50909056	     -7.49999987	     -2.72896630	     -3.33692778	     -4.62850662	      0.75798132	      0.01322927	      8.73543269	     -5.61639610	     -7.49999987	     -5.45437756	      0.13780546	      0.79199808	      4.01652273	    -13.42431622	     22.31258524	     35.11597563	     69.57174332	     -4.19900339	    -13.11228689	     15.35645662	     41.36203701	     80.39348311
      6.15000000	     -8.22575013	     -0.12182035	      1.81847208	      0.66074431	      0.95259932	      0.00622227	      2.28864620	     -0.40417794	      3.79716319	      0.37007935	      0.00645910	      4.45627466	     -5.56176236	     -7.49999987	     -2.60809054	     -3.37317761	     -4.61183473	      0.99088856	      0.01729427	      8.37275157	     -5.47937023	     -7.49999987	     -5.64697593	      0.15771651	      0.89962691	      4.13078947	    -13.52900476	     22.30369938	     35.10529660	     69.57989167	     -4.28722464	    -12.86499449	     15.45932558	     41.50656511	     80.42085896
      6.16666670	     -7.89928948	      0.09925551	      2.06566816	      0.66162007	      0.95174523	      0.00845612	      1.97681924	     -0.45703334	      3.92319828	      0.41534843	      0.00724920	      4.14691623	     -6.35274343	     -7.49999987	     -2.68676218	     -3.39240576	     -4.46722847	      1.34830862	      0.02353242	      8.01918358	     -5.67951881	     -7.49999987	     -6.26648496	      0.10423951	      1.06491560	      4.27924775	    -13.62831588	     22.33308966	     35.15946309	     69.62705461	     -4.55107571	    -13.01738367	     15.99613960	     42.58064586	     80.69737341
      6.18333330	     -7.76672957	      0.36996952	      2.37299244	      0.66151937	      0.95442765	      0.01006151	      1.85320732	     -0.61757333	      3.91353709	      0.50651555	      0.00884036	      3.91015518	     -6.44911405	     -7.49999987	     -2.37225767	     -3.35608079	     -4.43651778	      1.79486890	      0.03132637	      7.56842906	     -5.56532293	     -7.49999987	     -6.59470427	      0.03357306	      1.28413648	      4.43541238	    -13.74333119	     22.31628200	     35.08754612	     69.63356490	     -4.59169061	    -12.87446211	     16.13295194	     42.76499479	     80.77636892
      6.20000000	     -7.67189838	      0.57622996	      2.62030766	      0.65913837	      0.95554733	      0.01278652	      1.84109137	     -0.69678249	      3.87315410	      0.61577070	      0.01074723	      3.80267156	     -6.54742525	     -7.49999987	     -2.09034015	     -3.38237101	     -4.40057009	      2.25834730	      0.03941560	      7.18494721	     -5.41620322	     -7.49999987	     -6.95456903	      0.10032146	      1.55173704	      4.62318792	    -13.89066101	     22.29012767	     35.02181089	     69.63258149	     -4.69719472	    -12.69814276	     16.24025538	     42.90297000	     80.81664872
      6.21666670	     -7.41687238	      0.76295039	      3.12136836	      0.65729851	      0.95326109	      0.01490986	      1.71002924	     -0.71814099	      4.23131276	      0.75667855	      0.01320653	      3.33577620	     -7.82729637	     -7.49999987	     -1.63139646	     -3.48899074	     -4.29812407	      3.25928094	      0.05688518	      7.10185901	     -5.43283915	     -7.49999987	     -7.72339368	      0.07042306	      1.92244387	      4.81632218	    -13.94654808	     22.02230133	     34.86961444	     69.52252613	     -4.50463837	    -13.04290907	     16.90430595	     44.07261407	     83.47177838
      6.23333330	     -7.29515713	      0.99850465	      3.50094433	      0.65643655	      0.95899566	      0.01645174	      1.77382173	     -0.84241667	      3.98142009	      0.99042035	      0.01728610	      3.09401148	     -7.95695544	     -7.49999987	     -1.17887612	     -3.52268788	     -4.29255278	      3.94439055	      0.06884260	      6.63225431	     -5.16642490	     -7.49999987	     -8.32184642	      0.07264513	      2.23709311	      5.03913255	    -14.03381337	     22.00282336	     34.73426970	     69.52233095	     -4.41352170	    -12.93190256	     16.94209123	     44.23562323	     83.48900589
      6.25000000	     -7.08646241	      1.17301018	      3.95635935	      0.65427170	      0.95697452	      0.01754767	      1.83909520	     -0.88767586	      4.02956070	      1.31712064	      0.02298809	      2.44372631	     -9.23999967	     -7.49999987	     -0.69544372	     -3.61855622	     -4.38677551	      4.88759003	      0.08530454	      6.76086507	     -4.74481747	     -7.49999987	     -9.05513391	      0.11020592	      2.52303255	      5.37865697	    -14.02544339	     21.76040586	     34.32818165	     69.11937500	     -4.54232609	    -13.01166983	     17.09818846	     45.07610347	     83.67782430
      6.26666670	     -6.92954566	      1.32367192	      4.46731029	      0.65201904	      0.95665836	      0.01940669	      2.06633716	     -0.91513856	      3.58775696	      1.86800606	      0.03260286	      2.23997874	     -9.62255792	     -7.49999987	     -0.11425651	     -3.73146744	     -4.37359002	      5.77917935	      0.10086571	      6.83827920	     -4.21615669	     -7.49999987	     -9.66898946	      0.22609582	      3.05239794	      5.65526615	    -14.18637610	     22.51676197	     33.91126090	     65.57245786	     -4.00298577	    -13.34394161	     19.68144892	     45.17189318	     75.95848854
